<?xml version="1.0" encoding="UTF-8" standalone="no"?>
<svg width="452px" height="163px" viewBox="0 0 452 163" version="1.1" xmlns="http://www.w3.org/2000/svg" xmlns:xlink="http://www.w3.org/1999/xlink" xmlns:sketch="http://www.bohemiancoding.com/sketch/ns">
    <!-- Generator: Sketch 3.4.1 (15681) - http://www.bohemiancoding.com/sketch -->
    <title>Tablet Portrait</title>
    <desc>Created with Sketch.</desc>
    <defs></defs>
    <g id="Page-1" stroke="none" stroke-width="1" fill="none" fill-rule="evenodd" sketch:type="MSPage">
        <g id="Tablet-Portrait" sketch:type="MSArtboardGroup" transform="translate(-27.000000, -57.000000)" fill="#4A4A4A">
            <g id="Apps" sketch:type="MSLayerGroup" transform="translate(396.000000, 92.000000)">
                <g id="Group" sketch:type="MSShapeGroup">
                    <path d="M33.0466667,14.5 L33.0466667,2.31333333 C33.0466667,1.68 32.7593333,1.11333333 32.3066667,0.74 C32.2066667,0.66 32.1,0.586666667 31.9873333,0.52 C31.7,0.366666667 31.3666667,0.273333333 31.0133333,0.273333333 L2.55333333,0.273333333 C1.43333333,0.273333333 0.52,1.18666667 0.52,2.31333333 L0.52,53.1333333 C0.52,54.2593333 1.43333333,55.1666667 2.55333333,55.1666667 L31.0133333,55.1666667 C32.14,55.1666667 33.0473333,54.26 33.0473333,53.1333333 L33.0473333,38.1866667 L30.1673333,38.1866667 L30.1673333,45.2533333 L3.4,45.2533333 L3.4,3.58 L30.1666667,3.58 L30.1666667,14.5 L33.0466667,14.5 L33.0466667,14.5 Z M16.78,47.0333333 C18.4,47.0333333 19.7066667,48.3466667 19.7066667,49.9606667 C19.7066667,51.574 18.4,52.8806667 16.78,52.8806667 C15.1666667,52.8806667 13.86,51.574 13.86,49.9606667 C13.86,48.3466667 15.1666667,47.0333333 16.78,47.0333333 L16.78,47.0333333 Z" id="Shape"></path>
                    <path d="M22.7533333,24.4133333 L22.7533333,33.4866667 C22.7533333,34.2793333 22.1133333,34.926 21.32,34.926 L12.2466667,34.926 C11.4533333,34.926 10.8066667,34.2793333 10.8066667,33.4866667 L10.8066667,24.4133333 C10.8066667,23.62 11.4533333,22.9733333 12.2466667,22.9733333 L21.32,22.9733333 C22.1133333,22.9733333 22.7533333,23.62 22.7533333,24.4133333 L22.7533333,24.4133333 Z" id="Shape"></path>
                    <path d="M56.2933333,9.87333333 L56.2933333,21.7933333 C56.2933333,22.84 55.446,23.6866667 54.4066667,23.6866667 L48.2,23.6866667 L48.2,18.36 C48.2,16.2333333 46.4666667,14.5 44.34,14.5 L40.6,14.5 L40.6,9.87333333 C40.6,8.83333333 41.4466667,7.98666667 42.4866667,7.98666667 L54.4066667,7.98666667 C55.4466667,7.98666667 56.2933333,8.83333333 56.2933333,9.87333333 L56.2933333,9.87333333 Z" id="Shape"></path>
                    <path d="M46.8666667,18.36 L46.8666667,30.6933333 L42.3266667,30.6933333 C40.8,30.6933333 39.56,31.94 39.56,33.4666667 L39.56,36.8533333 L28.3733333,36.8533333 C26.9733333,36.8533333 25.8466667,35.7266667 25.8466667,34.3266667 L25.8466667,18.36 C25.8466667,16.9666667 26.9733333,15.8333333 28.3733333,15.8333333 L44.34,15.8333333 C45.7333333,15.8333333 46.8666667,16.9666667 46.8666667,18.36 L46.8666667,18.36 Z" id="Shape"></path>
                    <path d="M52.8333333,33.4666667 L52.8333333,42.54 C52.8333333,43.3333333 52.1933333,43.98 51.4,43.98 L42.3266667,43.98 C41.5333333,43.98 40.8933333,43.3333333 40.8933333,42.54 L40.8933333,33.4666667 C40.8933333,32.6733333 41.5333333,32.0266667 42.3266667,32.0266667 L51.4,32.0266667 C52.1933333,32.0266667 52.8333333,32.6733333 52.8333333,33.4666667 L52.8333333,33.4666667 Z" id="Shape"></path>
                </g>
            </g>
            <g id="Shape-+-Arduino" sketch:type="MSLayerGroup" transform="translate(36.000000, 92.000000)">
                <path d="M8.64318878,19.3756934 L2.28834648,13 L1.65212317,13.6383727 L8.00696547,20.0140661 L8.64318878,19.3756934 L8.64318878,19.3756934 Z M14.5941014,19.3756934 L8.23925914,13 L7.60303583,13.6383727 L13.9578781,20.0140661 L14.5941014,19.3756934 L14.5941014,19.3756934 Z M14.1901718,13 L13.5539485,13.6383727 L19.9087908,20.0140661 L20.5450141,19.3756934 L14.1901718,13 Z M16.244327,32.1415912 L16.2443271,48 L14.3966312,48 L14.396631,32.1415912 L9.09312771,32.1415912 L9.09312787,48 L7.24543191,48 L7.24543175,32.1415912 L0,32.1415912 L0,24.0256679 L3.86045276,24.0256679 L19.6299219,24.0256679 L23.4903746,24.0256679 L23.4903746,32.1415912 L16.244327,32.1415912 Z M21.6420628,25.879606 L19.629306,25.879606 L3.86045276,25.879606 L1.84769596,25.879606 L1.84769596,30.287653 L21.6420628,30.287653 L21.6420628,25.879606 L21.6420628,25.879606 Z" id="Shape" sketch:type="MSShapeGroup"></path>
                <g id="Arduino" transform="translate(37.000000, 0.000000)" sketch:type="MSShapeGroup">
                    <g id="Group">
                        <g>
                            <path d="M78.4615385,60 L9.23076923,60 C8.21538462,60 7.38461538,59.1692308 7.38461538,58.1538462 L7.38461538,57.2307692 C7.38461538,56.2153846 8.21538462,55.3846154 9.23076923,55.3846154 C9.87692308,55.3846154 10.5230769,55.7538462 10.8,56.3076923 L77.6307692,56.3076923 L79.2923077,54.6461538 L79.2923077,18.2769231 L77.0769231,16.0615385 C76.8,15.6923077 76.6153846,15.2307692 76.6153846,14.7692308 L76.6153846,3.69230769 L11.0769231,3.69230769 L11.0769231,9.23076923 C11.0769231,10.2461538 10.2461538,11.0769231 9.23076923,11.0769231 C8.21538462,11.0769231 7.38461538,10.2461538 7.38461538,9.23076923 L7.38461538,1.84615385 C7.38461538,0.830769231 8.21538462,0 9.23076923,0 L78.4615385,0 C79.4769231,0 80.3076923,0.830769231 80.3076923,1.84615385 L80.3076923,14.0307692 L82.5230769,16.2461538 C82.8923077,16.6153846 83.0769231,17.0769231 83.0769231,17.5384615 L83.0769231,55.3846154 C83.0769231,55.8461538 82.8923077,56.3076923 82.5230769,56.6769231 L79.7538462,59.4461538 C79.3846154,59.8153846 78.9230769,60 78.4615385,60 L78.4615385,60 Z" id="Shape"></path>
                            <path d="M9.23076923,43.3846154 C8.21538462,43.3846154 7.38461538,42.5538462 7.38461538,41.5384615 L7.38461538,27.6923077 C7.38461538,26.6769231 8.21538462,25.8461538 9.23076923,25.8461538 C10.2461538,25.8461538 11.0769231,26.6769231 11.0769231,27.6923077 L11.0769231,41.5384615 C11.0769231,42.5538462 10.2461538,43.3846154 9.23076923,43.3846154 L9.23076923,43.3846154 Z" id="Shape"></path>
                            <path d="M16.1538462,24.9230769 L1.38461538,24.9230769 C0.646153846,24.9230769 0,24.2769231 0,23.5384615 L0,13.3846154 C0,12.6461538 0.646153846,12 1.38461538,12 L16.1538462,12 C16.8923077,12 17.5384615,12.6461538 17.5384615,13.3846154 L17.5384615,23.5384615 C17.5384615,24.2769231 16.8923077,24.9230769 16.1538462,24.9230769 L16.1538462,24.9230769 Z" id="Shape"></path>
                            <path d="M18.9230769,54.4615385 L6,54.4615385 C5.26153846,54.4615385 4.61538462,53.8153846 4.61538462,53.0769231 L4.61538462,45.6923077 C4.61538462,44.9538462 5.26153846,44.3076923 6,44.3076923 L18.9230769,44.3076923 C19.6615385,44.3076923 20.3076923,44.9538462 20.3076923,45.6923077 L20.3076923,53.0769231 C20.3076923,53.8153846 19.6615385,54.4615385 18.9230769,54.4615385 L18.9230769,54.4615385 Z" id="Shape"></path>
                            <path d="M40.6153846,35.0769231 C40.0615385,35.0769231 39.6923077,35.4461538 39.6923077,36 L39.6923077,36.9230769 L41.5384615,36.9230769 L41.5384615,36 C41.5384615,35.4461538 41.1692308,35.0769231 40.6153846,35.0769231 L40.6153846,35.0769231 Z" id="Shape"></path>
                            <path d="M37.8461538,35.0769231 C37.2923077,35.0769231 36.9230769,35.4461538 36.9230769,36 L36.9230769,36.9230769 L38.7692308,36.9230769 L38.7692308,36 C38.7692308,35.4461538 38.4,35.0769231 37.8461538,35.0769231 L37.8461538,35.0769231 Z" id="Shape"></path>
                            <path d="M43.3846154,35.0769231 C42.8307692,35.0769231 42.4615385,35.4461538 42.4615385,36 L42.4615385,36.9230769 L44.3076923,36.9230769 L44.3076923,36 C44.3076923,35.4461538 43.9384615,35.0769231 43.3846154,35.0769231 L43.3846154,35.0769231 Z" id="Shape"></path>
                            <path d="M46.1538462,35.0769231 C45.6,35.0769231 45.2307692,35.4461538 45.2307692,36 L45.2307692,36.9230769 L47.0769231,36.9230769 L47.0769231,36 C47.0769231,35.4461538 46.7076923,35.0769231 46.1538462,35.0769231 L46.1538462,35.0769231 Z" id="Shape"></path>
                            <path d="M48.9230769,35.0769231 C48.3692308,35.0769231 48,35.4461538 48,36 L48,36.9230769 L49.8461538,36.9230769 L49.8461538,36 C49.8461538,35.4461538 49.4769231,35.0769231 48.9230769,35.0769231 L48.9230769,35.0769231 Z" id="Shape"></path>
                            <path d="M51.6923077,35.0769231 C51.1384615,35.0769231 50.7692308,35.4461538 50.7692308,36 L50.7692308,36.9230769 L52.6153846,36.9230769 L52.6153846,36 C52.6153846,35.4461538 52.2461538,35.0769231 51.6923077,35.0769231 L51.6923077,35.0769231 Z" id="Shape"></path>
                            <path d="M54.4615385,35.0769231 C53.9076923,35.0769231 53.5384615,35.4461538 53.5384615,36 L53.5384615,36.9230769 L55.3846154,36.9230769 L55.3846154,36 C55.3846154,35.4461538 55.0153846,35.0769231 54.4615385,35.0769231 L54.4615385,35.0769231 Z" id="Shape"></path>
                            <path d="M57.2307692,35.0769231 C56.6769231,35.0769231 56.3076923,35.4461538 56.3076923,36 L56.3076923,36.9230769 L58.1538462,36.9230769 L58.1538462,36 C58.1538462,35.4461538 57.7846154,35.0769231 57.2307692,35.0769231 L57.2307692,35.0769231 Z" id="Shape"></path>
                            <path d="M60,35.0769231 C59.4461538,35.0769231 59.0769231,35.4461538 59.0769231,36 L59.0769231,36.9230769 L60.9230769,36.9230769 L60.9230769,36 C60.9230769,35.4461538 60.5538462,35.0769231 60,35.0769231 L60,35.0769231 Z" id="Shape"></path>
                            <path d="M62.7692308,35.0769231 C62.2153846,35.0769231 61.8461538,35.4461538 61.8461538,36 L61.8461538,36.9230769 L63.6923077,36.9230769 L63.6923077,36 C63.6923077,35.4461538 63.3230769,35.0769231 62.7692308,35.0769231 L62.7692308,35.0769231 Z" id="Shape"></path>
                            <path d="M65.5384615,35.0769231 C64.9846154,35.0769231 64.6153846,35.4461538 64.6153846,36 L64.6153846,36.9230769 L66.4615385,36.9230769 L66.4615385,36 C66.4615385,35.4461538 66.0923077,35.0769231 65.5384615,35.0769231 L65.5384615,35.0769231 Z" id="Shape"></path>
                            <path d="M68.3076923,35.0769231 C67.7538462,35.0769231 67.3846154,35.4461538 67.3846154,36 L67.3846154,36.9230769 L69.2307692,36.9230769 L69.2307692,36 C69.2307692,35.4461538 68.8615385,35.0769231 68.3076923,35.0769231 L68.3076923,35.0769231 Z" id="Shape"></path>
                            <path d="M71.0769231,35.0769231 C70.5230769,35.0769231 70.1538462,35.4461538 70.1538462,36 L70.1538462,36.9230769 L72,36.9230769 L72,36 C72,35.4461538 71.6307692,35.0769231 71.0769231,35.0769231 L71.0769231,35.0769231 Z" id="Shape"></path>
                            <path d="M73.8461538,35.0769231 C73.2923077,35.0769231 72.9230769,35.4461538 72.9230769,36 L72.9230769,36.9230769 L74.7692308,36.9230769 L74.7692308,36 C74.7692308,35.4461538 74.4,35.0769231 73.8461538,35.0769231 L73.8461538,35.0769231 Z" id="Shape"></path>
                            <path d="M71.0769231,48.9230769 C71.6307692,48.9230769 72,48.5538462 72,48 L72,47.0769231 L70.1538462,47.0769231 L70.1538462,48 C70.1538462,48.5538462 70.5230769,48.9230769 71.0769231,48.9230769 L71.0769231,48.9230769 Z" id="Shape"></path>
                            <path d="M73.8461538,48.9230769 C74.4,48.9230769 74.7692308,48.5538462 74.7692308,48 L74.7692308,47.0769231 L72.9230769,47.0769231 L72.9230769,48 C72.9230769,48.5538462 73.2923077,48.9230769 73.8461538,48.9230769 L73.8461538,48.9230769 Z" id="Shape"></path>
                            <path d="M68.3076923,48.9230769 C68.8615385,48.9230769 69.2307692,48.5538462 69.2307692,48 L69.2307692,47.0769231 L67.3846154,47.0769231 L67.3846154,48 C67.3846154,48.5538462 67.7538462,48.9230769 68.3076923,48.9230769 L68.3076923,48.9230769 Z" id="Shape"></path>
                            <path d="M65.5384615,48.9230769 C66.0923077,48.9230769 66.4615385,48.5538462 66.4615385,48 L66.4615385,47.0769231 L64.6153846,47.0769231 L64.6153846,48 C64.6153846,48.5538462 64.9846154,48.9230769 65.5384615,48.9230769 L65.5384615,48.9230769 Z" id="Shape"></path>
                            <path d="M62.7692308,48.9230769 C63.3230769,48.9230769 63.6923077,48.5538462 63.6923077,48 L63.6923077,47.0769231 L61.8461538,47.0769231 L61.8461538,48 C61.8461538,48.5538462 62.2153846,48.9230769 62.7692308,48.9230769 L62.7692308,48.9230769 Z" id="Shape"></path>
                            <path d="M60,48.9230769 C60.5538462,48.9230769 60.9230769,48.5538462 60.9230769,48 L60.9230769,47.0769231 L59.0769231,47.0769231 L59.0769231,48 C59.0769231,48.5538462 59.4461538,48.9230769 60,48.9230769 L60,48.9230769 Z" id="Shape"></path>
                            <path d="M57.2307692,48.9230769 C57.7846154,48.9230769 58.1538462,48.5538462 58.1538462,48 L58.1538462,47.0769231 L56.3076923,47.0769231 L56.3076923,48 C56.3076923,48.5538462 56.6769231,48.9230769 57.2307692,48.9230769 L57.2307692,48.9230769 Z" id="Shape"></path>
                            <path d="M54.4615385,48.9230769 C55.0153846,48.9230769 55.3846154,48.5538462 55.3846154,48 L55.3846154,47.0769231 L53.5384615,47.0769231 L53.5384615,48 C53.5384615,48.5538462 53.9076923,48.9230769 54.4615385,48.9230769 L54.4615385,48.9230769 Z" id="Shape"></path>
                            <path d="M51.6923077,48.9230769 C52.2461538,48.9230769 52.6153846,48.5538462 52.6153846,48 L52.6153846,47.0769231 L50.7692308,47.0769231 L50.7692308,48 C50.7692308,48.5538462 51.1384615,48.9230769 51.6923077,48.9230769 L51.6923077,48.9230769 Z" id="Shape"></path>
                            <path d="M48.9230769,48.9230769 C49.4769231,48.9230769 49.8461538,48.5538462 49.8461538,48 L49.8461538,47.0769231 L48,47.0769231 L48,48 C48,48.5538462 48.3692308,48.9230769 48.9230769,48.9230769 L48.9230769,48.9230769 Z" id="Shape"></path>
                            <path d="M46.1538462,48.9230769 C46.7076923,48.9230769 47.0769231,48.5538462 47.0769231,48 L47.0769231,47.0769231 L45.2307692,47.0769231 L45.2307692,48 C45.2307692,48.5538462 45.6,48.9230769 46.1538462,48.9230769 L46.1538462,48.9230769 Z" id="Shape"></path>
                            <path d="M43.3846154,48.9230769 C43.9384615,48.9230769 44.3076923,48.5538462 44.3076923,48 L44.3076923,47.0769231 L42.4615385,47.0769231 L42.4615385,48 C42.4615385,48.5538462 42.8307692,48.9230769 43.3846154,48.9230769 L43.3846154,48.9230769 Z" id="Shape"></path>
                            <path d="M40.6153846,48.9230769 C41.1692308,48.9230769 41.5384615,48.5538462 41.5384615,48 L41.5384615,47.0769231 L39.6923077,47.0769231 L39.6923077,48 C39.6923077,48.5538462 40.0615385,48.9230769 40.6153846,48.9230769 L40.6153846,48.9230769 Z" id="Shape"></path>
                            <path d="M37.8461538,48.9230769 C38.4,48.9230769 38.7692308,48.5538462 38.7692308,48 L38.7692308,47.0769231 L36.9230769,47.0769231 L36.9230769,48 C36.9230769,48.5538462 37.2923077,48.9230769 37.8461538,48.9230769 L37.8461538,48.9230769 Z" id="Shape"></path>
                            <path d="M75.6923077,37.8461538 L36,37.8461538 C35.4461538,37.8461538 35.0769231,38.2153846 35.0769231,38.7692308 L35.0769231,45.2307692 C35.0769231,45.7846154 35.4461538,46.1538462 36,46.1538462 L75.6923077,46.1538462 C76.2461538,46.1538462 76.6153846,45.7846154 76.6153846,45.2307692 L76.6153846,38.7692308 C76.6153846,38.2153846 76.2461538,37.8461538 75.6923077,37.8461538 L75.6923077,37.8461538 Z M75.6923077,43.8461538 C74.6769231,43.8461538 73.8461538,43.0153846 73.8461538,42 C73.8461538,40.9846154 74.6769231,40.1538462 75.6923077,40.1538462 L75.6923077,43.8461538 L75.6923077,43.8461538 Z" id="Shape"></path>
                            <path d="M27.8769231,18.5538462 C27.8769231,26.5846154 38.9538462,29.6307692 44.4,21.4153846 C50.0307692,29.9076923 60.6461538,26.3076923 60.6461538,18.5538462 C60.6461538,10.8 50.1230769,7.01538462 44.4,15.6923077 C39.0461538,7.10769231 27.8769231,10.5230769 27.8769231,18.5538462 L27.8769231,18.5538462 L27.8769231,18.5538462 Z M30.8307692,18.5538462 C30.8307692,12.7384615 39.0461538,10.8923077 42.8307692,18.5538462 C38.9538462,25.8461538 30.8307692,24.3692308 30.8307692,18.5538462 L30.8307692,18.5538462 L30.8307692,18.5538462 Z M46.0615385,18.5538462 C49.4769231,10.8 57.9692308,12.9230769 57.8769231,18.5538462 C57.8769231,24.1846154 49.3846154,25.9384615 46.0615385,18.5538462 L46.0615385,18.5538462 Z" id="Shape"></path>
                            <rect id="Rectangle-path" x="33.8769231" y="17.7230769" width="4.89230769" height="1.56923077"></rect>
                            <path d="M51.6,19.2923077 L49.9384615,19.2923077 L49.9384615,17.6307692 L51.6,17.6307692 L51.6,15.9692308 L53.2615385,15.9692308 L53.2615385,17.6307692 L54.8307692,17.6307692 L54.8307692,19.2923077 L53.2615385,19.2923077 L53.2615385,20.8615385 L51.6,20.8615385 L51.6,19.2923077 Z" id="Shape"></path>
                        </g>
                    </g>
                </g>
            </g>
            <path d="M175.990994,123 L231.512192,123" id="Line" stroke="#4A4A4A" stroke-width="2" stroke-linecap="square" sketch:type="MSShapeGroup"></path>
            <path id="Line-decoration-1" d="M175.990994,123 L186.790994,120 L186.790994,126 L175.990994,123 Z" stroke="#4A4A4A" stroke-width="2" stroke-linecap="square"></path>
            <path id="Line-decoration-2" d="M231.512192,123 L220.712192,120 L220.712192,126 L231.512192,123 Z" stroke="#4A4A4A" stroke-width="2" stroke-linecap="square"></path>
            <path d="M321.990994,123 L377.512192,123" id="Line-Copy" stroke="#4A4A4A" stroke-width="2" stroke-linecap="square" sketch:type="MSShapeGroup"></path>
            <path id="Line-Copy-decoration-1" d="M321.990994,123 L332.790994,120 L332.790994,126 L321.990994,123 Z" stroke="#4A4A4A" stroke-width="2" stroke-linecap="square"></path>
            <path id="Line-Copy-decoration-2" d="M377.512192,123 L366.712192,120 L366.712192,126 L377.512192,123 Z" stroke="#4A4A4A" stroke-width="2" stroke-linecap="square"></path>
            <text id="Sensors" sketch:type="MSTextLayer" font-family="Open Sans" font-size="12" font-weight="bold" sketch:alignment="middle">
                <tspan x="94.3027344" y="179">Sensors</tspan>
            </text>
            <g id="Cloud-+-Messaging" sketch:type="MSLayerGroup" transform="translate(215.000000, 102.000000)">
                <g id="Cloud" transform="translate(30.000000, 0.000000)" sketch:type="MSShapeGroup">
                    <g id="Group">
                        <path d="M49.0173333,34.3353333 C54.362,34.3353333 58.6946667,30.002 58.6946667,24.6573333 C58.6946667,19.7986667 55.1146667,15.778 50.4486667,15.0853333 C50.6546667,14.2146667 50.7646667,13.3066667 50.7646667,12.372 C50.7646667,5.89866667 45.5173333,0.652 39.0446667,0.652 C35.93,0.652 33.1006667,1.86733333 31.0013333,3.84933333 C29.02,2.77333333 26.7493333,2.16266667 24.3366667,2.16266667 C17.0066667,2.16266667 10.9946667,7.80333333 10.4033333,14.98 L9.67666667,14.98 C4.33266667,14.98 0,19.3133333 0,24.6573333 C0,30.0026667 4.33266667,34.3353333 9.67733333,34.3353333 L49.0173333,34.3353333 Z" id="Shape"></path>
                    </g>
                </g>
                <text id="Messaging" sketch:type="MSTextLayer" font-family="Open Sans" font-size="12" font-weight="bold" sketch:alignment="middle">
                    <tspan x="27.6552734" y="77">Messaging</tspan>
                </text>
            </g>
            <text id="User-Interface" sketch:type="MSTextLayer" font-family="Open Sans" font-size="12" font-weight="bold" sketch:alignment="middle">
                <tspan x="379.773438" y="179">User Interface</tspan>
            </text>
        </g>
    </g>
</svg>